<?xml version="1.0" encoding="utf-8"?>
<!-- Generator: Adobe Illustrator 27.7.0, SVG Export Plug-In . SVG Version: 6.00 Build 0)  -->
<svg version="1.1" id="Layer_1" xmlns="http://www.w3.org/2000/svg" xmlns:xlink="http://www.w3.org/1999/xlink" x="0px" y="0px"
	 viewBox="0 0 288 144" style="enable-background:new 0 0 288 144;" xml:space="preserve">
<g>
	<path d="M115.18,67.85c-8.37-2.43-13.46-4.29-13.46-9.65c0-5.39,5.26-9.46,12.24-9.46c6.08,0,10.81,2.14,14.06,6.35l1.34,1.75
		l5.08-4.67l-1.2-1.46c-4.46-5.52-11.12-8.44-19.27-8.44c-9.52,0-19.16,5.47-19.16,15.94c0,10.96,9.71,13.72,18.28,16.15
		c8.01,2.27,14.92,4.22,14.92,11.65c0,9.6-10.57,10.35-13.81,10.35c-8.16,0-13.15-4.62-15.4-7.38l-1.33-1.62l-5.13,4.53l1.19,1.5
		c4.73,6.01,12.27,9.46,20.68,9.46c7.2,0,12.69-1.93,16.33-5.72c3.81-3.98,4.38-8.68,4.38-11.13
		C134.92,73.6,124.45,70.55,115.18,67.85z"/>
	<polygon points="53.94,40.18 26.65,101.85 34.07,101.85 41.17,85.93 61.35,85.93 58.44,79.44 44.07,79.44 54.05,57.06 
		74.01,101.85 81.44,101.85 	"/>
	<polygon points="160.91,95.36 160.91,74.96 191.14,74.96 191.14,68.48 160.91,68.48 160.91,49.63 191.73,49.63 191.73,43.16 
		154.23,43.16 154.23,101.85 189.14,101.85 191.99,95.36 	"/>
	<polygon points="233.05,40.18 205.76,101.85 213.18,101.85 233.16,57.06 243.13,79.44 228.71,79.44 225.81,85.93 246.03,85.93 
		253.12,101.85 260.55,101.85 	"/>
	<g>
		<path d="M255.45,50.06c-2.43,0-4.34-1.87-4.34-4.36c0-2.52,1.91-4.4,4.34-4.4c2.47,0,4.34,1.89,4.34,4.4
			C259.79,48.19,257.91,50.06,255.45,50.06z M255.45,41.93c-2.05,0-3.6,1.63-3.6,3.77c0,2.12,1.55,3.73,3.6,3.73
			s3.63-1.61,3.63-3.73C259.08,43.56,257.51,41.93,255.45,41.93z M255.64,46.05h-1.07v2.18h-0.71v-5.07h2.07
			c0.86,0,1.51,0.54,1.51,1.4c0,0.67-0.42,1.19-1.07,1.38l1.19,2.28h-0.82L255.64,46.05z M254.57,43.79v1.59h1.24
			c0.52,0,0.92-0.29,0.92-0.82c0-0.54-0.4-0.78-0.9-0.78H254.57z"/>
	</g>
</g>
</svg>
